<?xml version="1.0" standalone="no"?>
<!DOCTYPE svg PUBLIC "-//W3C//DTD SVG 20010904//EN"
 "http://www.w3.org/TR/2001/REC-SVG-20010904/DTD/svg10.dtd">
<svg version="1.0" xmlns="http://www.w3.org/2000/svg"
 width="10pt" height="10pt" viewBox="0 0 768.000000 768.000000"
 preserveAspectRatio="xMidYMid meet">

<g transform="translate(0.000000,768.000000) scale(0.100000,-0.100000)"
fill="#ccc" stroke="none">
<path d="M1919 5096 c-122 -44 -190 -137 -190 -262 0 -123 -52 -65 1028 -1146
711 -711 1001 -995 1037 -1015 67 -37 178 -40 241 -6 24 13 450 431 1035 1017
783 784 1000 1006 1017 1043 26 54 30 132 11 195 -15 50 -87 132 -142 161
l-41 22 -1980 2 c-1602 2 -1987 0 -2016 -11z"/>
</g>
</svg>