<?xml version="1.0" standalone="no"?>
<!DOCTYPE svg PUBLIC "-//W3C//DTD SVG 20010904//EN"
 "http://www.w3.org/TR/2001/REC-SVG-20010904/DTD/svg10.dtd">
<svg version="1.0" xmlns="http://www.w3.org/2000/svg"
 width="20.000000pt" height="20.000000pt" viewBox="0 0 225.000000 225.000000"
 preserveAspectRatio="xMidYMid meet">

<g transform="translate(0.000000,225.000000) scale(0.100000,-0.100000)"
fill="#000000" stroke="none">
<path d="M770 2169 c-101 -8 -177 -32 -285 -87 -72 -37 -108 -64 -181 -137
-81 -80 -98 -103 -142 -195 -68 -141 -86 -228 -80 -384 8 -178 55 -308 166
-449 90 -115 260 -224 407 -263 207 -54 446 -12 625 110 l65 44 370 -369 c269
-268 377 -369 393 -369 29 0 72 43 72 72 0 16 -101 124 -369 393 l-369 370 35
50 c52 76 90 156 115 242 30 105 32 305 4 403 -81 278 -292 485 -561 549 -96
23 -164 28 -265 20z m205 -144 c320 -67 545 -386 496 -704 -30 -189 -122 -337
-277 -440 -108 -73 -210 -104 -344 -105 -181 -1 -328 60 -456 189 -245 248
-243 639 5 885 157 157 364 219 576 175z"/>
</g>
</svg>
